<svg width="195" height="41" viewBox="0 0 195 41" fill="none" xmlns="http://www.w3.org/2000/svg">
<path d="M65.4631 20.5455C65.4631 9.5 58.9858 2.61364 50.054 2.61364C41.1222 2.61364 34.6449 9.5 34.6449 20.5455C34.6449 31.5909 41.1222 38.4773 50.054 38.4773C58.9858 38.4773 65.4631 31.5909 65.4631 20.5455ZM61.3722 20.5455C61.3722 29.6136 56.3949 34.5227 50.054 34.5227C43.7131 34.5227 38.7358 29.6136 38.7358 20.5455C38.7358 11.4773 43.7131 6.56818 50.054 6.56818C56.3949 6.56818 61.3722 11.4773 61.3722 20.5455ZM102.026 20.5455C102.026 9.5 95.5483 2.61364 86.6165 2.61364C77.6847 2.61364 71.2074 9.5 71.2074 20.5455C71.2074 31.5909 77.6847 38.4773 86.6165 38.4773C95.5483 38.4773 102.026 31.5909 102.026 20.5455ZM97.9347 20.5455C97.9347 29.6136 92.9574 34.5227 86.6165 34.5227C80.2756 34.5227 75.2983 29.6136 75.2983 20.5455C75.2983 11.4773 80.2756 6.56818 86.6165 6.56818C92.9574 6.56818 97.9347 11.4773 97.9347 20.5455ZM128.224 11.8182H132.315C132.128 6.55114 127.27 2.61364 120.52 2.61364C113.838 2.61364 108.588 6.5 108.588 12.3636C108.588 17.0682 111.997 19.8636 117.452 21.4318L121.747 22.6591C125.429 23.6818 128.702 24.9773 128.702 28.4545C128.702 32.2727 125.02 34.7955 120.179 34.7955C116.02 34.7955 112.338 32.9545 111.997 29H107.634C108.043 34.7273 112.679 38.6136 120.179 38.6136C128.224 38.6136 132.793 34.1818 132.793 28.5227C132.793 21.9773 126.588 19.8636 122.974 18.9091L119.429 17.9545C116.838 17.2727 112.679 15.9091 112.679 12.1591C112.679 8.81818 115.747 6.36364 120.384 6.36364C124.611 6.36364 127.815 8.375 128.224 11.8182ZM139.743 38H161.084V34.25H143.97V22.3864H159.72V18.6364H143.97V6.84091H160.811V3.09091H139.743V38ZM166.521 6.84091H177.499V38H181.726V6.84091H192.703V3.09091H166.521V6.84091Z" fill="white"/>
<path d="M2.64205 38H0.642046V40H2.64205V38ZM11.0795 38V40H13.0795V38H11.0795ZM11.0795 26.0511V24.0511H9.07955V26.0511H11.0795ZM15.4091 26.0511L17.1737 25.1097L16.6089 24.0511H15.4091V26.0511ZM21.7841 38L20.0195 38.9414L20.5843 40H21.7841V38ZM30.9886 38V40H34.356L32.7449 37.0431L30.9886 38ZM23.7443 24.7045L22.9185 22.883L20.9584 23.7716L21.9881 25.6615L23.7443 24.7045ZM2.64205 3.09091V1.09091H0.642046V3.09091H2.64205ZM11.0795 19.4034H9.07955V21.4034H11.0795V19.4034ZM11.0795 9.89205V7.89205H9.07955V9.89205H11.0795ZM2.64205 40H11.0795V36H2.64205V40ZM13.0795 38V26.0511H9.07955V38H13.0795ZM11.0795 28.0511H15.4091V24.0511H11.0795V28.0511ZM13.6445 26.9926L20.0195 38.9414L23.5487 37.0586L17.1737 25.1097L13.6445 26.9926ZM21.7841 40H30.9886V36H21.7841V40ZM32.7449 37.0431L25.5005 23.7476L21.9881 25.6615L29.2324 38.9569L32.7449 37.0431ZM24.5701 26.5261C29.178 24.4372 31.7955 20.2594 31.7955 14.7159H27.7955C27.7955 18.8202 25.9811 21.4946 22.9185 22.883L24.5701 26.5261ZM31.7955 14.7159C31.7955 10.652 30.3956 7.17747 27.717 4.73461C25.0599 2.31132 21.3522 1.09091 17.0625 1.09091V5.09091C20.6137 5.09091 23.2725 6.09493 25.0216 7.6901C26.7493 9.26572 27.7955 11.6036 27.7955 14.7159H31.7955ZM17.0625 1.09091H2.64205V5.09091H17.0625V1.09091ZM0.642046 3.09091V38H4.64205V3.09091H0.642046ZM13.0795 19.4034V9.89205H9.07955V19.4034H13.0795ZM11.0795 11.892H15.2386V7.89205H11.0795V11.892ZM15.2386 11.892C16.8987 11.892 17.8197 12.2469 18.2982 12.638C18.7026 12.9686 19.0511 13.5371 19.0511 14.7159H23.0511C23.0511 12.6561 22.3854 10.8127 20.8297 9.54097C19.3479 8.32983 17.3627 7.89205 15.2386 7.89205V11.892ZM19.0511 14.7159C19.0511 15.8903 18.7072 16.405 18.3313 16.6991C17.859 17.0688 16.9335 17.4034 15.2386 17.4034V21.4034C17.3279 21.4034 19.3086 21.0136 20.7965 19.8492C22.3809 18.6092 23.0511 16.7801 23.0511 14.7159H19.0511ZM15.2386 17.4034H11.0795V21.4034H15.2386V17.4034ZM67.4631 20.5455C67.4631 14.6367 65.7271 9.65159 62.608 6.11467C59.4729 2.55955 55.0635 0.613635 50.054 0.613635V4.61364C53.9763 4.61364 57.2715 6.1109 59.6079 8.76033C61.9604 11.428 63.4631 15.4087 63.4631 20.5455H67.4631ZM50.054 0.613635C45.0445 0.613635 40.6351 2.55955 37.5 6.11466C34.3809 9.65159 32.6449 14.6367 32.6449 20.5455H36.6449C36.6449 15.4087 38.1475 11.428 40.5 8.76033C42.8365 6.1109 46.1317 4.61364 50.054 4.61364V0.613635ZM32.6449 20.5455C32.6449 26.4542 34.3809 31.4393 37.5 34.9762C40.6351 38.5314 45.0445 40.4773 50.054 40.4773V36.4773C46.1317 36.4773 42.8365 34.98 40.5 32.3306C38.1475 29.663 36.6449 25.6822 36.6449 20.5455H32.6449ZM50.054 40.4773C55.0635 40.4773 59.4729 38.5314 62.608 34.9762C65.7271 31.4393 67.4631 26.4542 67.4631 20.5455H63.4631C63.4631 25.6822 61.9604 29.663 59.6079 32.3306C57.2715 34.98 53.9763 36.4773 50.054 36.4773V40.4773ZM59.3722 20.5455C59.3722 24.7224 58.2285 27.7136 56.5767 29.6281C54.9429 31.5216 52.6795 32.5227 50.054 32.5227V36.5227C53.7694 36.5227 57.165 35.0693 59.6052 32.2412C62.0272 29.4341 63.3722 25.4367 63.3722 20.5455H59.3722ZM50.054 32.5227C47.4285 32.5227 45.165 31.5216 43.5313 29.6281C41.8794 27.7136 40.7358 24.7224 40.7358 20.5455H36.7358C36.7358 25.4367 38.0808 29.4341 40.5028 32.2412C42.9429 35.0693 46.3386 36.5227 50.054 36.5227V32.5227ZM40.7358 20.5455C40.7358 16.3685 41.8794 13.3773 43.5313 11.4628C45.165 9.5693 47.4285 8.56818 50.054 8.56818V4.56818C46.3386 4.56818 42.9429 6.02161 40.5028 8.84972C38.0808 11.6568 36.7358 15.6542 36.7358 20.5455H40.7358ZM50.054 8.56818C52.6795 8.56818 54.9429 9.5693 56.5767 11.4628C58.2285 13.3773 59.3722 16.3685 59.3722 20.5455H63.3722C63.3722 15.6542 62.0272 11.6568 59.6052 8.84972C57.165 6.02161 53.7694 4.56818 50.054 4.56818V8.56818ZM104.026 20.5455C104.026 14.6367 102.29 9.65159 99.1705 6.11467C96.0354 2.55955 91.626 0.613635 86.6165 0.613635V4.61364C90.5388 4.61364 93.834 6.1109 96.1704 8.76033C98.5229 11.428 100.026 15.4087 100.026 20.5455H104.026ZM86.6165 0.613635C81.607 0.613635 77.1976 2.55955 74.0625 6.11466C70.9434 9.65159 69.2074 14.6367 69.2074 20.5455H73.2074C73.2074 15.4087 74.71 11.428 77.0625 8.76033C79.399 6.1109 82.6942 4.61364 86.6165 4.61364V0.613635ZM69.2074 20.5455C69.2074 26.4542 70.9434 31.4393 74.0625 34.9762C77.1976 38.5314 81.607 40.4773 86.6165 40.4773V36.4773C82.6942 36.4773 79.399 34.98 77.0625 32.3306C74.71 29.663 73.2074 25.6822 73.2074 20.5455H69.2074ZM86.6165 40.4773C91.626 40.4773 96.0354 38.5314 99.1705 34.9762C102.29 31.4393 104.026 26.4542 104.026 20.5455H100.026C100.026 25.6822 98.5229 29.663 96.1704 32.3306C93.834 34.98 90.5388 36.4773 86.6165 36.4773V40.4773ZM95.9347 20.5455C95.9347 24.7224 94.791 27.7136 93.1392 29.6281C91.5054 31.5216 89.242 32.5227 86.6165 32.5227V36.5227C90.3319 36.5227 93.7275 35.0693 96.1677 32.2412C98.5897 29.4341 99.9347 25.4367 99.9347 20.5455H95.9347ZM86.6165 32.5227C83.991 32.5227 81.7275 31.5216 80.0938 29.6281C78.4419 27.7136 77.2983 24.7224 77.2983 20.5455H73.2983C73.2983 25.4367 74.6433 29.4341 77.0653 32.2412C79.5054 35.0693 82.9011 36.5227 86.6165 36.5227V32.5227ZM77.2983 20.5455C77.2983 16.3685 78.4419 13.3773 80.0938 11.4628C81.7275 9.5693 83.991 8.56818 86.6165 8.56818V4.56818C82.9011 4.56818 79.5054 6.02161 77.0653 8.84972C74.6433 11.6568 73.2983 15.6542 73.2983 20.5455H77.2983ZM86.6165 8.56818C89.242 8.56818 91.5054 9.5693 93.1392 11.4628C94.791 13.3773 95.9347 16.3685 95.9347 20.5455H99.9347C99.9347 15.6542 98.5897 11.6568 96.1677 8.84972C93.7275 6.02161 90.3319 4.56818 86.6165 4.56818V8.56818ZM128.224 11.8182L126.238 12.0541L126.448 13.8182H128.224V11.8182ZM132.315 11.8182V13.8182H134.388L134.314 11.747L132.315 11.8182ZM117.452 21.4318L116.899 23.354L116.902 23.3549L117.452 21.4318ZM121.747 22.6591L121.198 24.5821L121.205 24.5842L121.212 24.5861L121.747 22.6591ZM111.997 29L113.99 28.8282L113.832 27H111.997V29ZM107.634 29V27H105.486L105.639 29.1425L107.634 29ZM122.974 18.9091L122.454 20.8403L122.464 20.8428L122.974 18.9091ZM119.429 17.9545L119.949 16.0233L119.938 16.0204L119.429 17.9545ZM128.224 13.8182H132.315V9.81818H128.224V13.8182ZM134.314 11.747C134.076 5.05482 127.96 0.613635 120.52 0.613635V4.61364C126.58 4.61364 130.18 8.04745 130.317 11.8893L134.314 11.747ZM120.52 0.613635C113.189 0.613635 106.588 4.98913 106.588 12.3636H110.588C110.588 8.01087 114.487 4.61364 120.52 4.61364V0.613635ZM106.588 12.3636C106.588 15.2649 107.665 17.6568 109.584 19.5118C111.445 21.31 114.006 22.5223 116.899 23.354L118.004 19.5097C115.443 18.7732 113.573 17.8037 112.364 16.6359C111.215 15.525 110.588 14.1669 110.588 12.3636H106.588ZM116.902 23.3549L121.198 24.5821L122.297 20.736L118.001 19.5088L116.902 23.3549ZM121.212 24.5861C123.053 25.0974 124.493 25.6057 125.466 26.28C126.32 26.8722 126.702 27.5 126.702 28.4545H130.702C130.702 25.9318 129.447 24.1732 127.745 22.9928C126.16 21.8943 124.124 21.2435 122.282 20.7321L121.212 24.5861ZM126.702 28.4545C126.702 29.6448 126.155 30.6582 125.08 31.4386C123.968 32.2468 122.274 32.7955 120.179 32.7955V36.7955C122.924 36.7955 125.493 36.0828 127.431 34.6751C129.408 33.2395 130.702 31.0825 130.702 28.4545H126.702ZM120.179 32.7955C118.363 32.7955 116.811 32.3891 115.739 31.699C114.729 31.0489 114.102 30.1339 113.99 28.8282L110.005 29.1718C110.233 31.8207 111.618 33.8034 113.574 35.0624C115.468 36.2814 117.836 36.7955 120.179 36.7955V32.7955ZM111.997 27H107.634V31H111.997V27ZM105.639 29.1425C105.882 32.5457 107.403 35.4774 110.012 37.5272C112.592 39.5547 116.095 40.6136 120.179 40.6136V36.6136C116.763 36.6136 114.198 35.7293 112.483 34.3819C110.796 33.0567 109.794 31.1816 109.628 28.8575L105.639 29.1425ZM120.179 40.6136C124.56 40.6136 128.206 39.4049 130.794 37.2178C133.404 35.0119 134.793 31.9244 134.793 28.5227H130.793C130.793 30.7801 129.897 32.7381 128.212 34.1629C126.504 35.6065 123.844 36.6136 120.179 36.6136V40.6136ZM134.793 28.5227C134.793 24.4885 132.829 21.7684 130.42 20.0054C128.097 18.3052 125.332 17.4632 123.485 16.9754L122.464 20.8428C124.231 21.3095 126.375 22.0016 128.057 23.2332C129.654 24.4021 130.793 26.0115 130.793 28.5227H134.793ZM123.494 16.9779L119.949 16.0233L118.909 19.8858L122.454 20.8403L123.494 16.9779ZM119.938 16.0204C118.663 15.6848 117.251 15.2382 116.18 14.5353C115.165 13.8696 114.679 13.1391 114.679 12.1591H110.679C110.679 14.9291 112.272 16.7554 113.985 17.8795C115.641 18.9663 117.604 19.5424 118.92 19.8887L119.938 16.0204ZM114.679 12.1591C114.679 11.1594 115.117 10.2796 116.009 9.59638C116.932 8.88909 118.402 8.36364 120.384 8.36364V4.36364C117.729 4.36364 115.346 5.06546 113.577 6.42066C111.775 7.79998 110.679 9.81787 110.679 12.1591H114.679ZM120.384 8.36364C124.101 8.36364 126 10.0483 126.238 12.0541L130.21 11.5822C129.631 6.70169 125.12 4.36364 120.384 4.36364V8.36364ZM139.743 38H137.743V40H139.743V38ZM161.084 38V40H163.084V38H161.084ZM161.084 34.25H163.084V32.25H161.084V34.25ZM143.97 34.25H141.97V36.25H143.97V34.25ZM143.97 22.3864V20.3864H141.97V22.3864H143.97ZM159.72 22.3864V24.3864H161.72V22.3864H159.72ZM159.72 18.6364H161.72V16.6364H159.72V18.6364ZM143.97 18.6364H141.97V20.6364H143.97V18.6364ZM143.97 6.84091V4.84091H141.97V6.84091H143.97ZM160.811 6.84091V8.84091H162.811V6.84091H160.811ZM160.811 3.09091H162.811V1.09091H160.811V3.09091ZM139.743 3.09091V1.09091H137.743V3.09091H139.743ZM139.743 40H161.084V36H139.743V40ZM163.084 38V34.25H159.084V38H163.084ZM161.084 32.25H143.97V36.25H161.084V32.25ZM145.97 34.25V22.3864H141.97V34.25H145.97ZM143.97 24.3864H159.72V20.3864H143.97V24.3864ZM161.72 22.3864V18.6364H157.72V22.3864H161.72ZM159.72 16.6364H143.97V20.6364H159.72V16.6364ZM145.97 18.6364V6.84091H141.97V18.6364H145.97ZM143.97 8.84091H160.811V4.84091H143.97V8.84091ZM162.811 6.84091V3.09091H158.811V6.84091H162.811ZM160.811 1.09091H139.743V5.09091H160.811V1.09091ZM137.743 3.09091V38H141.743V3.09091H137.743ZM166.521 6.84091H164.521V8.84091H166.521V6.84091ZM177.499 6.84091H179.499V4.84091H177.499V6.84091ZM177.499 38H175.499V40H177.499V38ZM181.726 38V40H183.726V38H181.726ZM181.726 6.84091V4.84091H179.726V6.84091H181.726ZM192.703 6.84091V8.84091H194.703V6.84091H192.703ZM192.703 3.09091H194.703V1.09091H192.703V3.09091ZM166.521 3.09091V1.09091H164.521V3.09091H166.521ZM166.521 8.84091H177.499V4.84091H166.521V8.84091ZM175.499 6.84091V38H179.499V6.84091H175.499ZM177.499 40H181.726V36H177.499V40ZM183.726 38V6.84091H179.726V38H183.726ZM181.726 8.84091H192.703V4.84091H181.726V8.84091ZM194.703 6.84091V3.09091H190.703V6.84091H194.703ZM192.703 1.09091H166.521V5.09091H192.703V1.09091ZM164.521 3.09091V6.84091H168.521V3.09091H164.521Z" fill="white"/>
</svg>
